<mxfile host="app.diagrams.net" modified="2024-02-21T13:20:29.460Z" agent="Mozilla/5.0 (Windows NT 10.0; Win64; x64) AppleWebKit/537.36 (KHTML, like Gecko) Chrome/121.0.0.0 Safari/537.36" etag="ilZgjjPf4sx3OiQ4S8j5" version="23.1.5" type="device">
  <diagram name="Page-1" id="c4acf3e9-155e-7222-9cf6-157b1a14988f">
    <mxGraphModel dx="880" dy="444" grid="1" gridSize="10" guides="1" tooltips="1" connect="1" arrows="1" fold="1" page="1" pageScale="1" pageWidth="850" pageHeight="1100" background="none" math="0" shadow="0">
      <root>
        <mxCell id="0" />
        <mxCell id="1" parent="0" />
        <mxCell id="1-_jkfvhQH5Qh27fas4j-5" value="Жанр музыки" style="swimlane;fontStyle=0;childLayout=stackLayout;horizontal=1;startSize=26;fillColor=#d5e8d4;horizontalStack=0;resizeParent=1;resizeParentMax=0;resizeLast=0;collapsible=1;marginBottom=0;whiteSpace=wrap;html=1;strokeColor=#82b366;rounded=1;" parent="1" vertex="1">
          <mxGeometry x="230" y="25" width="140" height="78" as="geometry" />
        </mxCell>
        <mxCell id="1-_jkfvhQH5Qh27fas4j-7" value="&lt;b&gt;&lt;u&gt;ID_жанра&lt;/u&gt;&lt;/b&gt;" style="text;strokeColor=#9673a6;fillColor=#e1d5e7;align=left;verticalAlign=top;spacingLeft=4;spacingRight=4;overflow=hidden;rotatable=0;points=[[0,0.5],[1,0.5]];portConstraint=eastwest;whiteSpace=wrap;html=1;rounded=1;" parent="1-_jkfvhQH5Qh27fas4j-5" vertex="1">
          <mxGeometry y="26" width="140" height="26" as="geometry" />
        </mxCell>
        <mxCell id="1-_jkfvhQH5Qh27fas4j-28" value="Название жанра" style="text;strokeColor=none;fillColor=none;align=left;verticalAlign=top;spacingLeft=4;spacingRight=4;overflow=hidden;rotatable=0;points=[[0,0.5],[1,0.5]];portConstraint=eastwest;whiteSpace=wrap;html=1;rounded=1;" parent="1-_jkfvhQH5Qh27fas4j-5" vertex="1">
          <mxGeometry y="52" width="140" height="26" as="geometry" />
        </mxCell>
        <mxCell id="1-_jkfvhQH5Qh27fas4j-9" value="Исполнитель" style="swimlane;fontStyle=0;childLayout=stackLayout;horizontal=1;startSize=26;fillColor=#fff2cc;horizontalStack=0;resizeParent=1;resizeParentMax=0;resizeLast=0;collapsible=1;marginBottom=0;whiteSpace=wrap;html=1;strokeColor=#d6b656;rounded=1;" parent="1" vertex="1">
          <mxGeometry x="230" y="156" width="140" height="78" as="geometry" />
        </mxCell>
        <mxCell id="1-_jkfvhQH5Qh27fas4j-10" value="&lt;b&gt;&lt;u&gt;ID_исполнителя&lt;/u&gt;&lt;/b&gt;" style="text;strokeColor=#b85450;fillColor=#f8cecc;align=left;verticalAlign=top;spacingLeft=4;spacingRight=4;overflow=hidden;rotatable=0;points=[[0,0.5],[1,0.5]];portConstraint=eastwest;whiteSpace=wrap;html=1;rounded=1;" parent="1-_jkfvhQH5Qh27fas4j-9" vertex="1">
          <mxGeometry y="26" width="140" height="26" as="geometry" />
        </mxCell>
        <mxCell id="1-_jkfvhQH5Qh27fas4j-29" value="Имя исполнителя" style="text;strokeColor=none;fillColor=none;align=left;verticalAlign=top;spacingLeft=4;spacingRight=4;overflow=hidden;rotatable=0;points=[[0,0.5],[1,0.5]];portConstraint=eastwest;whiteSpace=wrap;html=1;rounded=1;" parent="1-_jkfvhQH5Qh27fas4j-9" vertex="1">
          <mxGeometry y="52" width="140" height="26" as="geometry" />
        </mxCell>
        <mxCell id="1-_jkfvhQH5Qh27fas4j-18" value="Альбом" style="swimlane;fontStyle=0;childLayout=stackLayout;horizontal=1;startSize=26;fillColor=#e1d5e7;horizontalStack=0;resizeParent=1;resizeParentMax=0;resizeLast=0;collapsible=1;marginBottom=0;whiteSpace=wrap;html=1;strokeColor=#9673a6;rounded=1;" parent="1" vertex="1">
          <mxGeometry x="240" y="320" width="140" height="104" as="geometry" />
        </mxCell>
        <mxCell id="1-_jkfvhQH5Qh27fas4j-24" value="&lt;b&gt;&lt;u&gt;ID_альбома&lt;/u&gt;&lt;/b&gt;" style="text;strokeColor=#d6b656;fillColor=#fff2cc;align=left;verticalAlign=top;spacingLeft=4;spacingRight=4;overflow=hidden;rotatable=0;points=[[0,0.5],[1,0.5]];portConstraint=eastwest;whiteSpace=wrap;html=1;rounded=1;" parent="1-_jkfvhQH5Qh27fas4j-18" vertex="1">
          <mxGeometry y="26" width="140" height="26" as="geometry" />
        </mxCell>
        <mxCell id="1-_jkfvhQH5Qh27fas4j-30" value="Название альбома" style="text;strokeColor=none;fillColor=none;align=left;verticalAlign=top;spacingLeft=4;spacingRight=4;overflow=hidden;rotatable=0;points=[[0,0.5],[1,0.5]];portConstraint=eastwest;whiteSpace=wrap;html=1;rounded=1;" parent="1-_jkfvhQH5Qh27fas4j-18" vertex="1">
          <mxGeometry y="52" width="140" height="26" as="geometry" />
        </mxCell>
        <mxCell id="1-_jkfvhQH5Qh27fas4j-31" value="Год выпуска альбома" style="text;strokeColor=none;fillColor=none;align=left;verticalAlign=top;spacingLeft=4;spacingRight=4;overflow=hidden;rotatable=0;points=[[0,0.5],[1,0.5]];portConstraint=eastwest;whiteSpace=wrap;html=1;rounded=1;" parent="1-_jkfvhQH5Qh27fas4j-18" vertex="1">
          <mxGeometry y="78" width="140" height="26" as="geometry" />
        </mxCell>
        <mxCell id="1-_jkfvhQH5Qh27fas4j-25" value="Трэки" style="swimlane;fontStyle=0;childLayout=stackLayout;horizontal=1;startSize=26;fillColor=#d80073;horizontalStack=0;resizeParent=1;resizeParentMax=0;resizeLast=0;collapsible=1;marginBottom=0;whiteSpace=wrap;html=1;strokeColor=#A50040;fontColor=#ffffff;rounded=1;" parent="1" vertex="1">
          <mxGeometry x="550" y="320" width="140" height="130" as="geometry" />
        </mxCell>
        <mxCell id="1-_jkfvhQH5Qh27fas4j-27" value="&lt;b&gt;&lt;u&gt;ID_Трэка&lt;/u&gt;&lt;/b&gt;" style="text;strokeColor=#666666;fillColor=#f5f5f5;align=left;verticalAlign=top;spacingLeft=4;spacingRight=4;overflow=hidden;rotatable=0;points=[[0,0.5],[1,0.5]];portConstraint=eastwest;whiteSpace=wrap;html=1;rounded=1;fontColor=#333333;" parent="1-_jkfvhQH5Qh27fas4j-25" vertex="1">
          <mxGeometry y="26" width="140" height="26" as="geometry" />
        </mxCell>
        <mxCell id="1-_jkfvhQH5Qh27fas4j-26" value="&lt;b&gt;&lt;u&gt;ID_альбома&lt;/u&gt;&lt;/b&gt;" style="text;strokeColor=#d6b656;fillColor=#fff2cc;align=left;verticalAlign=top;spacingLeft=4;spacingRight=4;overflow=hidden;rotatable=0;points=[[0,0.5],[1,0.5]];portConstraint=eastwest;whiteSpace=wrap;html=1;rounded=1;" parent="1-_jkfvhQH5Qh27fas4j-25" vertex="1">
          <mxGeometry y="52" width="140" height="26" as="geometry" />
        </mxCell>
        <mxCell id="1-_jkfvhQH5Qh27fas4j-32" value="Название трэка" style="text;strokeColor=none;fillColor=none;align=left;verticalAlign=top;spacingLeft=4;spacingRight=4;overflow=hidden;rotatable=0;points=[[0,0.5],[1,0.5]];portConstraint=eastwest;whiteSpace=wrap;html=1;rounded=1;" parent="1-_jkfvhQH5Qh27fas4j-25" vertex="1">
          <mxGeometry y="78" width="140" height="26" as="geometry" />
        </mxCell>
        <mxCell id="1-_jkfvhQH5Qh27fas4j-33" value="Длительность" style="text;strokeColor=none;fillColor=none;align=left;verticalAlign=top;spacingLeft=4;spacingRight=4;overflow=hidden;rotatable=0;points=[[0,0.5],[1,0.5]];portConstraint=eastwest;whiteSpace=wrap;html=1;rounded=1;" parent="1-_jkfvhQH5Qh27fas4j-25" vertex="1">
          <mxGeometry y="104" width="140" height="26" as="geometry" />
        </mxCell>
        <mxCell id="1-_jkfvhQH5Qh27fas4j-37" style="edgeStyle=orthogonalEdgeStyle;rounded=1;orthogonalLoop=1;jettySize=auto;html=1;entryX=1;entryY=0.5;entryDx=0;entryDy=0;exitX=0;exitY=0.5;exitDx=0;exitDy=0;" parent="1" source="1-_jkfvhQH5Qh27fas4j-10" target="TVBrPlGbBszZQYqSE3XN-4" edge="1">
          <mxGeometry relative="1" as="geometry">
            <mxPoint x="220" y="299" as="sourcePoint" />
          </mxGeometry>
        </mxCell>
        <mxCell id="TVBrPlGbBszZQYqSE3XN-1" value="Исполнители жанра" style="swimlane;fontStyle=0;childLayout=stackLayout;horizontal=1;startSize=26;fillColor=#d5e8d4;horizontalStack=0;resizeParent=1;resizeParentMax=0;resizeLast=0;collapsible=1;marginBottom=0;whiteSpace=wrap;html=1;strokeColor=#82b366;rounded=1;" vertex="1" parent="1">
          <mxGeometry x="20" y="130" width="140" height="78" as="geometry" />
        </mxCell>
        <mxCell id="TVBrPlGbBszZQYqSE3XN-2" value="&lt;b&gt;&lt;u&gt;ID_жанра&lt;/u&gt;&lt;/b&gt;" style="text;strokeColor=#9673a6;fillColor=#e1d5e7;align=left;verticalAlign=top;spacingLeft=4;spacingRight=4;overflow=hidden;rotatable=0;points=[[0,0.5],[1,0.5]];portConstraint=eastwest;whiteSpace=wrap;html=1;rounded=1;" vertex="1" parent="TVBrPlGbBszZQYqSE3XN-1">
          <mxGeometry y="26" width="140" height="26" as="geometry" />
        </mxCell>
        <mxCell id="TVBrPlGbBszZQYqSE3XN-4" value="&lt;b&gt;&lt;u&gt;ID_исполнителя&lt;/u&gt;&lt;/b&gt;" style="text;strokeColor=#b85450;fillColor=#f8cecc;align=left;verticalAlign=top;spacingLeft=4;spacingRight=4;overflow=hidden;rotatable=0;points=[[0,0.5],[1,0.5]];portConstraint=eastwest;whiteSpace=wrap;html=1;rounded=1;" vertex="1" parent="TVBrPlGbBszZQYqSE3XN-1">
          <mxGeometry y="52" width="140" height="26" as="geometry" />
        </mxCell>
        <mxCell id="TVBrPlGbBszZQYqSE3XN-6" style="edgeStyle=orthogonalEdgeStyle;rounded=1;orthogonalLoop=1;jettySize=auto;html=1;exitX=0;exitY=0.5;exitDx=0;exitDy=0;entryX=1;entryY=0.5;entryDx=0;entryDy=0;curved=0;" edge="1" parent="1" source="1-_jkfvhQH5Qh27fas4j-7" target="TVBrPlGbBszZQYqSE3XN-2">
          <mxGeometry relative="1" as="geometry" />
        </mxCell>
        <mxCell id="TVBrPlGbBszZQYqSE3XN-7" value="Альбомы исполнитля" style="swimlane;fontStyle=0;childLayout=stackLayout;horizontal=1;startSize=26;fillColor=#d5e8d4;horizontalStack=0;resizeParent=1;resizeParentMax=0;resizeLast=0;collapsible=1;marginBottom=0;whiteSpace=wrap;html=1;strokeColor=#82b366;rounded=1;" vertex="1" parent="1">
          <mxGeometry x="30" y="270" width="140" height="78" as="geometry" />
        </mxCell>
        <mxCell id="TVBrPlGbBszZQYqSE3XN-9" value="&lt;b&gt;&lt;u&gt;ID_исполнителя&lt;/u&gt;&lt;/b&gt;" style="text;strokeColor=#b85450;fillColor=#f8cecc;align=left;verticalAlign=top;spacingLeft=4;spacingRight=4;overflow=hidden;rotatable=0;points=[[0,0.5],[1,0.5]];portConstraint=eastwest;whiteSpace=wrap;html=1;rounded=1;" vertex="1" parent="TVBrPlGbBszZQYqSE3XN-7">
          <mxGeometry y="26" width="140" height="26" as="geometry" />
        </mxCell>
        <mxCell id="TVBrPlGbBszZQYqSE3XN-8" value="&lt;b&gt;&lt;u&gt;ID_Альбома&lt;/u&gt;&lt;/b&gt;" style="text;strokeColor=#d6b656;fillColor=#fff2cc;align=left;verticalAlign=top;spacingLeft=4;spacingRight=4;overflow=hidden;rotatable=0;points=[[0,0.5],[1,0.5]];portConstraint=eastwest;whiteSpace=wrap;html=1;rounded=1;" vertex="1" parent="TVBrPlGbBszZQYqSE3XN-7">
          <mxGeometry y="52" width="140" height="26" as="geometry" />
        </mxCell>
        <mxCell id="TVBrPlGbBszZQYqSE3XN-10" style="edgeStyle=orthogonalEdgeStyle;rounded=1;orthogonalLoop=1;jettySize=auto;html=1;exitX=0;exitY=0.5;exitDx=0;exitDy=0;entryX=1;entryY=0.5;entryDx=0;entryDy=0;curved=0;" edge="1" parent="1" source="1-_jkfvhQH5Qh27fas4j-10" target="TVBrPlGbBszZQYqSE3XN-9">
          <mxGeometry relative="1" as="geometry">
            <Array as="points">
              <mxPoint x="200" y="195" />
              <mxPoint x="200" y="309" />
            </Array>
          </mxGeometry>
        </mxCell>
        <mxCell id="TVBrPlGbBszZQYqSE3XN-11" style="edgeStyle=orthogonalEdgeStyle;rounded=1;orthogonalLoop=1;jettySize=auto;html=1;exitX=0;exitY=0.5;exitDx=0;exitDy=0;entryX=1;entryY=0.5;entryDx=0;entryDy=0;curved=0;" edge="1" parent="1" source="1-_jkfvhQH5Qh27fas4j-24" target="TVBrPlGbBszZQYqSE3XN-8">
          <mxGeometry relative="1" as="geometry" />
        </mxCell>
        <mxCell id="TVBrPlGbBszZQYqSE3XN-12" value="Сборник" style="swimlane;fontStyle=0;childLayout=stackLayout;horizontal=1;startSize=26;fillColor=#d80073;horizontalStack=0;resizeParent=1;resizeParentMax=0;resizeLast=0;collapsible=1;marginBottom=0;whiteSpace=wrap;html=1;strokeColor=#A50040;fontColor=#ffffff;rounded=1;" vertex="1" parent="1">
          <mxGeometry x="550" y="25" width="140" height="130" as="geometry" />
        </mxCell>
        <mxCell id="TVBrPlGbBszZQYqSE3XN-13" value="&lt;b&gt;&lt;u&gt;ID_альбома&lt;/u&gt;&lt;/b&gt;" style="text;strokeColor=#6c8ebf;fillColor=#dae8fc;align=left;verticalAlign=top;spacingLeft=4;spacingRight=4;overflow=hidden;rotatable=0;points=[[0,0.5],[1,0.5]];portConstraint=eastwest;whiteSpace=wrap;html=1;rounded=1;" vertex="1" parent="TVBrPlGbBszZQYqSE3XN-12">
          <mxGeometry y="26" width="140" height="26" as="geometry" />
        </mxCell>
        <mxCell id="TVBrPlGbBszZQYqSE3XN-14" value="&lt;b&gt;&lt;u&gt;ID_Трэка&lt;/u&gt;&lt;/b&gt;" style="text;align=left;verticalAlign=top;spacingLeft=4;spacingRight=4;overflow=hidden;rotatable=0;points=[[0,0.5],[1,0.5]];portConstraint=eastwest;whiteSpace=wrap;html=1;rounded=1;fillColor=#f5f5f5;fontColor=#333333;strokeColor=#666666;" vertex="1" parent="TVBrPlGbBszZQYqSE3XN-12">
          <mxGeometry y="52" width="140" height="26" as="geometry" />
        </mxCell>
        <mxCell id="TVBrPlGbBszZQYqSE3XN-15" value="Название сборника" style="text;strokeColor=none;fillColor=none;align=left;verticalAlign=top;spacingLeft=4;spacingRight=4;overflow=hidden;rotatable=0;points=[[0,0.5],[1,0.5]];portConstraint=eastwest;whiteSpace=wrap;html=1;rounded=1;" vertex="1" parent="TVBrPlGbBszZQYqSE3XN-12">
          <mxGeometry y="78" width="140" height="26" as="geometry" />
        </mxCell>
        <mxCell id="TVBrPlGbBszZQYqSE3XN-16" value="Год выпуска сбоника" style="text;strokeColor=none;fillColor=none;align=left;verticalAlign=top;spacingLeft=4;spacingRight=4;overflow=hidden;rotatable=0;points=[[0,0.5],[1,0.5]];portConstraint=eastwest;whiteSpace=wrap;html=1;rounded=1;" vertex="1" parent="TVBrPlGbBszZQYqSE3XN-12">
          <mxGeometry y="104" width="140" height="26" as="geometry" />
        </mxCell>
        <mxCell id="TVBrPlGbBszZQYqSE3XN-17" style="edgeStyle=orthogonalEdgeStyle;rounded=1;orthogonalLoop=1;jettySize=auto;html=1;exitX=0;exitY=0.5;exitDx=0;exitDy=0;entryX=1;entryY=0.5;entryDx=0;entryDy=0;curved=0;" edge="1" parent="1" source="1-_jkfvhQH5Qh27fas4j-26" target="1-_jkfvhQH5Qh27fas4j-24">
          <mxGeometry relative="1" as="geometry">
            <Array as="points">
              <mxPoint x="420" y="385" />
              <mxPoint x="420" y="359" />
            </Array>
          </mxGeometry>
        </mxCell>
        <mxCell id="TVBrPlGbBszZQYqSE3XN-18" style="edgeStyle=orthogonalEdgeStyle;rounded=1;orthogonalLoop=1;jettySize=auto;html=1;exitX=0;exitY=0.5;exitDx=0;exitDy=0;entryX=1;entryY=0.5;entryDx=0;entryDy=0;curved=0;" edge="1" parent="1" source="TVBrPlGbBszZQYqSE3XN-13" target="1-_jkfvhQH5Qh27fas4j-24">
          <mxGeometry relative="1" as="geometry">
            <Array as="points">
              <mxPoint x="420" y="64" />
              <mxPoint x="420" y="359" />
            </Array>
          </mxGeometry>
        </mxCell>
        <mxCell id="TVBrPlGbBszZQYqSE3XN-21" style="rounded=1;orthogonalLoop=1;jettySize=auto;html=1;exitX=0;exitY=0.5;exitDx=0;exitDy=0;entryX=0;entryY=0.5;entryDx=0;entryDy=0;edgeStyle=orthogonalEdgeStyle;elbow=vertical;" edge="1" parent="1" source="1-_jkfvhQH5Qh27fas4j-27" target="TVBrPlGbBszZQYqSE3XN-12">
          <mxGeometry relative="1" as="geometry">
            <Array as="points">
              <mxPoint x="500" y="359" />
              <mxPoint x="500" y="90" />
            </Array>
          </mxGeometry>
        </mxCell>
      </root>
    </mxGraphModel>
  </diagram>
</mxfile>
